# AST/ASF file generated using VICON BodyLanguage
# -----------------------------------------------
:version 1.10
:name VICON
:units
  mass 1.0
  length 0.45
  angle deg
:documentation
   .ast/.asf automatically generated from VICON data using
   VICON BodyBuilder and BodyLanguage model FoxedUp or BRILLIANT.MOD
:root
   order TX TY TZ RX RY RZ
   axis XYZ
   position 0 0 0  
   orientation 0 0 0 
:bonedata
  begin
     id 1 
     name lhipjoint
     direction 0.710188 -0.616876 0.339259 
     length 2.5669 
     axis 0 0 0  XYZ
  end
  begin
     id 2 
     name lfemur
     direction 0.34202 -0.939693 0  
     length 7.12796  
     axis 0 0 20  XYZ
    dof rx ry rz
    limits (-160.0 20.0)
           (-70.0 70.0)
           (-60.0 70.0)
  end
  begin
     id 3 
     name ltibia
     direction 0.34202 -0.939693 0   
     length 7.58108   
     axis 0 0 20   XYZ
    dof rx
    limits (-10.0 170.0)
  end
  begin
     id 4 
     name lfoot
     direction 0.0669471 -0.183936 0.980656   
     length 2.17365   
     axis -90 7.62852e-016 20   XYZ
    dof rx rz
    limits (-45.0 90.0)
           (-70.0 20.0)
  end
  begin
     id 5 
     name ltoes
     direction 1.53508e-011 -4.21705e-011 1   
     length 1.09427   
     axis -90 7.62852e-016 20   XYZ
    dof rx
    limits (-90.0 20.0)
  end
  begin
     id 6 
     name rhipjoint
     direction -0.700191 -0.625589 0.34405   
     length 2.53115  
     axis 0 0 0  XYZ 
  end
  begin
     id 7 
     name rfemur
     direction -0.34202 -0.939693 0   
     length 7.33006   
     axis 0 0 -20   XYZ
    dof rx ry rz
    limits (-160.0 20.0)
           (-70.0 70.0)
           (-70.0 60.0)
  end
  begin
     id 8 
     name rtibia
     direction -0.34202 -0.939693 0   
     length 7.64926   
     axis 0 0 -20   XYZ
    dof rx
    limits (-10.0 170.0)
 end
 begin
     id 9 
     name rfoot
     direction -0.0688927 -0.189281 0.979503   
     length 2.20493  
     axis -90 -7.62852e-016 -20   XYZ
    dof rx rz
    limits (-45.0 90.0)
           (-20.0 70.0)
  end
  begin
     id 10 
     name rtoes
     direction -1.53567e-011 -4.21933e-011 1   
     length 1.10919   
     axis -90 -7.62852e-016 -20   XYZ
    dof rx
    limits (-90.0 20.0)
  end
  begin
     id 11 
     name lowerback
     direction -0.0167868 0.989873 -0.140959   
     length 2.14596   
     axis 0 0 0   XYZ
    dof rx ry rz
    limits (-20.0 45.0)
           (-30.0 30.0)
           (-30.0 30.0)
  end
  begin
     id 12 
     name upperback
     direction 0.0129109 0.998033 0.0613525   
     length 2.10457   
     axis 0 0 0   XYZ
    dof rx ry rz
    limits (-20.0 45.0)
           (-30.0 30.0)
           (-30.0 30.0)
  end
  begin
     id 13 
     name thorax
     direction 0.0177047 0.991119 0.131797   
     length 2.17652   
     axis 0 0 0   XYZ
    dof rx ry rz
    limits (-20.0 45.0)
           (-30.0 30.0)
           (-30.0 30.0)
  end
  begin
     id 14 
     name lowerneck
     direction -0.0336893 0.997548 0.0613464   
     length 1.8912   
     axis 0 0 0   XYZ
    dof rx ry rz
    limits (-20.0 45.0)
           (-30.0 30.0)
           (-30.0 30.0)
  end
  begin
     id 15 
     name upperneck
     direction 0.0435909 0.997179 -0.0611028   
     length 1.8829   
     axis 0 0 0   XYZ
    dof rx ry rz
    limits (-20.0 45.0)
           (-30.0 30.0)
           (-30.0 30.0)
  end
  begin
     id 16
     name head
     direction 0.0175076 0.999444 -0.0283782  
     length 1.93197  
     axis 0 0 0   XYZ
    dof rx ry rz
    limits (-20.0 45.0)
           (-30.0 30.0)
           (-30.0 30.0)
  end
  begin
     id 17 
     name lclavicle
     direction 0.919164 0.389875 0.0559876  
     length 3.60004  
     axis 0 0 0   XYZ
    dof ry rz
    limits (-20.0 10.0)
           (0.0 20.0)
  end
  begin
     id 18 
     name lhumerus
     direction 1 -4.48958e-011 6.89191e-027   
     length 5.43301   
     axis 180 -30 -90   XYZ
    dof rx ry rz
    limits (-60.0 90.0)
           (-90.0 90.0)
           (-90.0 90.0)
  end
  begin
     id 19
     name lradius
     direction 1 -4.4897e-011 3.24727e-027   
     length 3.15936   
     axis 180 -30 -90   XYZ
    dof rx
    limits (-10.0 170.0)
  end
  begin
     id 20
     name lwrist
     direction 1 -4.4897e-011 9.00228e-027   
     length 1.57968   
     axis -6.29373e-015 90 90   XYZ
    dof ry
    limits (-180.0 0.0)
 end
  begin
     id 21 
     name lhand
     direction 1 -4.48968e-011 1.80042e-026   
     length 0.712827   
     axis -1.14882e-014 90 90   XYZ
    dof rx rz
    limits (-90.0 90.0)
           (-45.0 45.0)
  end
  begin
     id 22 
     name lfingers
     direction 1 -4.49019e-011 3.60267e-026   
     length 0.574699   
     axis -2.29769e-014 90 90   XYZ
    dof rx
    limits (0.0 90.0)
  end
  begin
     id 23
     name lthumb
     direction 0.707107 -6.3498e-011 0.707107   
     length 0.825157   
     axis -90 45 5.37419e-014   XYZ
    dof rx rz
    limits (-45.0 45.0)
           (-45.0 45.0)
  end
  begin
     id 24 
     name rclavicle
     direction -0.890334 0.455305 -0.00132111   
     length 3.51494  
     axis 0 0 0   XYZ 
    dof ry rz
    limits (-10.0 20.0)
           (-20.0 0.0)
  end
  begin
     id 25 
     name rhumerus
     direction -1 -4.48967e-011 5.07175e-028  
     length 5.34194   
     axis 180 30 90   XYZ
    dof rx ry rz
    limits (-90.0 60.0)
           (-90.0 90.0)
           (-90.0 90.0)
  end
  begin
     id 26 
     name rradius
     direction -1 -4.48955e-011 3.30467e-027   
     length 3.19351   
     axis 180 30 90   XYZ
    dof rx
    limits (-10.0 170.0)
  end
  begin
     id 27 
     name rwrist
     direction -1 -4.48968e-011 9.00208e-027   
     length 1.59676   
     axis -6.29373e-015 -90 -90   XYZ
    dof ry
    limits (-180.0 0.0)
  end
  begin
     id 28
     name rhand
     direction -1 -4.49e-011 1.80099e-026   
     length 0.743862   
     axis -1.14882e-014 -90 -90   XYZ
    dof rx rz
    limits (-90.0 90.0)
           (-45.0 45.0)
  end
  begin
     id 29
     name rfingers
     direction -1 -4.49009e-011 3.6023e-026   
     length 0.599721   
     axis -2.29769e-014 -90 -90   XYZ
    dof rx
    limits (0.0 90.0)
  end
  begin
     id 30
     name rthumb
     direction -0.707107 -6.35025e-011 0.707107   
     length 0.861083   
     axis -90 -45 -5.37419e-014   XYZ
    dof rx rz
    limits (-45.0 45.0)
           (-45.0 45.0)
  end
:hierarchy
  begin
    root lhipjoint rhipjoint lowerback
    lhipjoint lfemur
    lfemur ltibia
    ltibia lfoot
    lfoot ltoes
    rhipjoint rfemur
    rfemur rtibia
    rtibia rfoot
    rfoot rtoes
    lowerback upperback
    upperback thorax
    thorax lowerneck lclavicle rclavicle
    lowerneck upperneck
    upperneck head
    lclavicle lhumerus
    lhumerus lradius
    lradius lwrist
    lwrist lhand lthumb
    lhand lfingers
    rclavicle rhumerus
    rhumerus rradius
    rradius rwrist
    rwrist rhand rthumb
    rhand rfingers
  end

#!OML:ASF H:\Martial Arts Walks\Project 1\Capture day 1\Session 1\male.ASF
:FULLY-SPECIFIED
:DEGREES
1
root 0.00326205 13.5836 -30.3725 11.5147 -25.4908 -14.4117
lowerback 5.84519 0.433515 4.72763
upperback -2.29356 1.20339 5.09629
thorax -5.70219 0.508287 2.54395
lowerneck -6.21158 -4.58735 -6.30883
upperneck 14.2701 -6.29229 5.13397
head 5.68714 -3.07609 2.20648
rclavicle 1.02685e-014 -6.21202e-015
rhumerus -74.2695 24.181 -96.6962
rradius 108.871
rwrist -48.4123
rhand -2.99785 -14.7173
rfingers 7.12502
rthumb 22.716 -43.4002
lclavicle 1.02685e-014 -6.21202e-015
lhumerus -1.02902 -20.244 71.8901
lradius 37.5445
lwrist -27.9723
lhand -19.0751 26.6714
lfingers 7.12502
lthumb 7.23262 56.5278
rfemur 16.8686 -1.72468 14.5196
rtibia 29.6087
rfoot -25.0684 -33.9904
rtoes -26.8277
lfemur -72.3578 36.1117 -11.4719
ltibia 83.4361
lfoot -13.8381 -4.26562
ltoes -1.43637
2
root 0.00312569 13.5854 -30.3749 11.5232 -25.4692 -14.3842
lowerback 5.87365 0.421008 4.69105
upperback -2.31772 1.18812 5.10067
thorax -5.74462 0.501618 2.571
lowerneck -6.12302 -4.59162 -6.28928
upperneck 14.0711 -6.29458 5.1229
head 5.60903 -3.07838 2.20258
rclavicle -3.16099e-014 -1.42628e-014
rhumerus -74.325 24.2006 -96.7064
rradius 108.88
rwrist -48.4445
rhand -3.0355 -14.7158
rfingers 7.12502
rthumb 22.6799 -43.403
lclavicle -3.16099e-014 -1.42628e-014
lhumerus -1.05673 -20.2366 71.8938
lradius 37.5826
lwrist -27.9265
lhand -19.103 26.6733
lfingers 7.12502
lthumb 7.20571 56.5306
rfemur 16.8082 -1.77331 14.499
rtibia 29.6642
rfoot -25.0111 -34.0447
rtoes -26.852
lfemur -72.3699 36.0646 -11.4976
ltibia 83.4106
lfoot -13.8098 -4.25618
ltoes -1.37262
3
root 0.00278911 13.5846 -30.3772 11.5346 -25.4582 -14.3742
lowerback 5.86307 0.394591 4.667
upperback -2.31937 1.15048 5.11098
thorax -5.74051 0.484116 2.5994
lowerneck -6.02638 -4.58738 -6.2871
upperneck 13.8589 -6.28881 5.14962
head 5.52676 -3.07535 2.21426
rclavicle -3.37592e-014 -1.48095e-014
rhumerus -74.3301 24.2709 -96.7367
rradius 108.857
rwrist -48.4502
rhand -3.06344 -14.7678
rfingers 7.12502
rthumb 22.6531 -43.4584
lclavicle -3.37592e-014 -1.48095e-014
lhumerus -1.06977 -20.1965 71.8689
lradius 37.5937
lwrist -27.8529
lhand -19.2065 26.7031
lfingers 7.12502
lthumb 7.10582 56.5638
rfemur 16.7726 -1.79671 14.4917
rtibia 29.6998
rfoot -25.0188 -34.0444
rtoes -27.0042
lfemur -72.3952 36.0568 -11.5162
ltibia 83.4003
lfoot -13.806 -4.26188
ltoes -1.31244
4
root 0.00187619 13.5855 -30.3776 11.505 -25.493 -14.36
lowerback 5.89224 0.396882 4.63434
upperback -2.32197 1.15373 5.11409
thorax -5.76063 0.486786 2.62066
lowerneck -5.94503 -4.58443 -6.29256
upperneck 13.7358 -6.28667 5.17256
head 5.4753 -3.07452 2.22493
rclavicle -2.03816e-014 2.94201e-014
rhumerus -74.3836 24.316 -96.7546
rradius 108.854
rwrist -48.4272
rhand -3.07003 -14.811
rfingers 7.12502
rthumb 22.6467 -43.5023
lclavicle -2.03816e-014 2.94201e-014
lhumerus -1.09046 -20.1696 71.8754
lradius 37.5786
lwrist -27.8952
lhand -19.2378 26.684
lfingers 7.12502
lthumb 7.0756 56.5457
rfemur 16.776 -1.77177 14.4728
rtibia 29.7301
rfoot -25.0607 -34.0426
rtoes -26.8191
lfemur -72.337 36.0904 -11.5001
ltibia 83.3867
lfoot -13.797 -4.27331
ltoes -1.41792
5
root 0.00118335 13.5863 -30.3792 11.4917 -25.5024 -14.3428
lowerback 5.9118 0.389278 4.60305
upperback -2.32763 1.14321 5.11669
thorax -5.77826 0.482612 2.64213
lowerneck -5.8759 -4.58467 -6.28404
upperneck 13.6067 -6.28808 5.18663
head 5.4236 -3.07509 2.23006
rclavicle -4.07912e-014 -4.10987e-014
rhumerus -74.4103 24.3589 -96.7749
rradius 108.84
rwrist -48.4226
rhand -3.07998 -14.8543
rfingers 7.12502
rthumb 22.6372 -43.5468
lclavicle -4.07912e-014 -4.10987e-014
lhumerus -1.09879 -20.1485 71.8681
lradius 37.5681
lwrist -27.8989
lhand -19.2793 26.6772
lfingers 7.12502
lthumb 7.0355 56.5402
rfemur 16.7658 -1.77322 14.458
rtibia 29.7521
rfoot -25.0632 -34.0518
rtoes -26.8483
lfemur -72.3163 36.098 -11.5052
ltibia 83.3724
lfoot -13.7894 -4.28636
ltoes -1.40976
6
root 0.000342353 13.5871 -30.3805 11.476 -25.5156 -14.3267
lowerback 5.92896 0.383923 4.57378
upperback -2.33129 1.13543 5.11771
thorax -5.79235 0.479744 2.66051
lowerneck -5.82715 -4.58555 -6.27209
upperneck 13.5172 -6.29078 5.19648
head 5.38753 -3.07606 2.23256
rclavicle 1.15109e-014 -2.90723e-014
rhumerus -74.4323 24.4007 -96.7952
rradius 108.824
rwrist -48.4191
rhand -3.08405 -14.8994
rfingers 7.12502
rthumb 22.6333 -43.5924
lclavicle 1.15109e-014 -2.90723e-014
lhumerus -1.09987 -20.1257 71.8602
lradius 37.5449
lwrist -27.9199
lhand -19.3098 26.6615
lfingers 7.12502
lthumb 7.00615 56.5255
rfemur 16.7683 -1.76754 14.4441
rtibia 29.7565
rfoot -25.0573 -34.0578
rtoes -26.9088
lfemur -72.2915 36.1128 -11.5094
ltibia 83.3577
lfoot -13.7842 -4.30315
ltoes -1.39331
